<?xml version="1.0" encoding="UTF-8" standalone="no"?>
<!-- Created with Inkscape (http://www.inkscape.org/) -->

<svg
   width="212.97754mm"
   height="178.41371mm"
   viewBox="0 0 212.97755 178.41372"
   version="1.1"
   id="svg1"
   xmlns="http://www.w3.org/2000/svg"
   xmlns:svg="http://www.w3.org/2000/svg">
  <defs
     id="defs1" />
  <g
     id="layer1"
     transform="translate(-0.71949699,-20.896489)">
    <path
       style="fill:#ffffff;fill-opacity:1;stroke-width:2;stroke-linecap:round;stroke-linejoin:round;paint-order:fill markers stroke"
       d="m 34.255343,30.089202 30.137395,0.03807 a 11.010792,11.010792 31.728591 0 1 9.830127,6.077989 L 147.3014,182.04306 a 5.7176529,5.7176529 121.6924 0 1 -5.11179,8.27914 H 108.21828 A 14.661723,14.661723 32.276709 0 1 94.978947,181.96017 L 27.668971,40.502619 a 7.2837979,7.2837979 122.3129 0 1 6.586372,-10.413417 z"
       id="path1"
       transform="matrix(1.1303171,0,0,1.1090373,-29.7565,-11.78675)" />
    <path
       style="fill:#ffffff;fill-opacity:1;stroke-width:2;stroke-linecap:round;stroke-linejoin:round;paint-order:fill markers stroke"
       d="M 153.01511,138.16625 214.89199,34.732043 a 3.4770787,3.4770787 60.335844 0 0 -2.99709,-5.262099 l -59.74456,0.226494 a 17.435471,17.435471 151.52495 0 0 -14.5121,7.871243 L 112.20003,76.34216 a 7.9667769,7.9667769 92.729003 0 0 -0.38547,8.086835 l 28.15842,53.386645 a 7.48399,7.48399 1.5399016 0 0 13.04213,0.35061 z"
       id="path2"
       transform="matrix(1.1303171,0,0,1.1090373,-29.7565,-11.78675)" />
    <path
       style="fill:#ffffff;fill-opacity:1;stroke-width:2;stroke-linecap:round;stroke-linejoin:round;paint-order:fill markers stroke"
       d="m 76.056437,190.32671 -32.459335,0.0158 a 4.9080799,4.9080799 62.048253 0 1 -4.065403,-7.66147 l 19.26123,-28.42267 a 5.3599664,5.3599664 4.0619467 0 1 9.254583,0.6572 l 13.209771,27.08347 a 5.7896285,5.7896285 121.98582 0 1 -5.200846,8.32767 z"
       id="path4"
       transform="matrix(1.1303171,0,0,1.1090373,-27.989583,-11.78675)" />
  </g>
</svg>
